#N canvas 425 25 1366 685 12;
#N canvas 17 16 1920 997 super_guerra 0;
#X obj 88 457 *~;
#X obj 191 788 dac~ 1 2 3 4;
#X obj 269 193 metro;
#X floatatom 304 166 5 0 0 0 - - - 0;
#X obj 269 166 tgl 15 0 empty empty empty 0 -6 0 8 #fcfcfc #000000
#000000 0 1;
#X obj 308 235 del;
#X obj 154 357 line~;
#X obj 154 381 abs~;
#X obj 153 409 *~ -1;
#X obj 152 433 +~ 1;
#X obj 211 458 *~;
#X obj 277 358 line~;
#X obj 277 382 abs~;
#X obj 276 410 *~ -1;
#X obj 275 434 +~ 1;
#X obj 320 459 *~;
#X obj 386 359 line~;
#X obj 386 383 abs~;
#X obj 385 411 *~ -1;
#X obj 384 435 +~ 1;
#X obj 422 459 *~;
#X obj 488 359 line~;
#X obj 488 383 abs~;
#X obj 487 411 *~ -1;
#X obj 382 261 del;
#X obj 401 231 / 4;
#X obj 485 287 del;
#X obj 504 257 / 4;
#X obj 154 308 f;
#X obj 277 309 f;
#X obj 386 310 f;
#X obj 488 312 f;
#X text 359 161 speed;
#X text 546 373 creates back and forth movement;
#X text 547 395 between 0 and 1;
#X obj 299 126 hsl 128 30 0 2000 0 0 empty empty empty -2 -8 0 10 #fcfcfc
#000000 #000000 0 1;
#X obj 444 194 / 2;
#X obj 327 205 / 4;
#X obj 486 435 +~ 2;
#X text -252 310 3.9.3.1. Spatial Quadro;
#X text -198 347 www.pd-tutorial.com;
#X obj 87 323 *~ 0.2;
#X msg 154 334 -1 \, 1 \$1;
#X msg 277 335 -1 \, 1 \$1;
#X msg 386 336 -1 \, 1 \$1;
#X msg 488 336 -1 \, 1 \$1;
#X msg -66 528 start;
#X msg -211 478 stop;
#X msg -252 478 print;
#X text -222 523 1;
#X text -83 524 2;
#X text -213 498 CAMBIAR NOMBRE FICHERO CADA NUEVA REC.;
#X text 250 162 ON;
#X text 296 108 controlador manual;
#X obj -79 651 writesf~ 4;
#X msg -205 526 open v2.wav;
#X msg 452 3 stop;
#X floatatom 365 -319 5 0 0 0 - - - 0;
#X text 430 -317 Aves e insectos 305000 msec;
#X msg 6 -24 stop;
#X floatatom 90 -315 5 0 0 0 - - - 0;
#X text 138 -316 entorno 305000 msec;
#X msg 75 -256 open bombs_280423_01.wav \, 1;
#X msg 86 -231 open militars_280423_01.wav \, 1;
#X msg 93 -192 open shooting_280423_01.wav \, 1;
#X msg 103 -156 open helicopter_280423_01.wav \, 1;
#X msg 358 -228 open militars_280423_01.wav \, 1;
#X msg 431 -184 open shooting_280423_01.wav \, 1;
#X msg 482 -152 open helicopter_280423_01.wav \, 1;
#X msg 536 -115 open bombs_280423_01.wav \, 1;
#X obj 49 2 readsf~ 4;
#X obj 593 38 readsf~ 4;
#X obj 270 -398 bng 15 250 50 0 empty empty empty 17 7 0 10 #fcfcfc
#000000 #000000;
#X obj 83 -289 sel 0 1 2 3 4;
#X obj 364 -290 sel 0 1 2 3 4;
#X msg 661 472 open lluvia_280423_01.wav \, 1;
#X obj 91 -359 metro 15000;
#X obj 366 -363 metro 10200;
#X obj 57 58 *~ 1.2;
#X obj 562 98 *~ 1.2;
#X obj 366 -342 random 4;
#X obj 90 -337 random 4;
#X msg 606 453 stop;
#X obj 662 500 readsf~ 1;
#X obj 662 529 *~ 0.4;
#X obj 672 429 bng 15 250 50 0 empty empty empty 17 7 0 10 #fcfcfc
#000000 #000000;
#X text -110 310 Johannes Kreidler;
#X connect 0 0 1 0;
#X connect 0 0 54 0;
#X connect 0 0 54 1;
#X connect 0 0 54 2;
#X connect 0 0 54 3;
#X connect 2 0 5 0;
#X connect 2 0 28 0;
#X connect 3 0 2 1;
#X connect 3 0 25 0;
#X connect 3 0 27 0;
#X connect 3 0 36 0;
#X connect 3 0 37 0;
#X connect 4 0 2 0;
#X connect 5 0 24 0;
#X connect 5 0 29 0;
#X connect 5 0 30 0;
#X connect 5 0 31 0;
#X connect 6 0 7 0;
#X connect 7 0 8 0;
#X connect 8 0 9 0;
#X connect 9 0 0 1;
#X connect 10 0 1 1;
#X connect 10 0 54 1;
#X connect 10 0 54 0;
#X connect 10 0 54 2;
#X connect 10 0 54 3;
#X connect 11 0 12 0;
#X connect 12 0 13 0;
#X connect 13 0 14 0;
#X connect 14 0 10 1;
#X connect 15 0 1 2;
#X connect 15 0 54 2;
#X connect 15 0 54 0;
#X connect 15 0 54 1;
#X connect 15 0 54 3;
#X connect 16 0 17 0;
#X connect 17 0 18 0;
#X connect 18 0 19 0;
#X connect 19 0 15 1;
#X connect 20 0 1 3;
#X connect 20 0 54 3;
#X connect 20 0 54 2;
#X connect 20 0 54 1;
#X connect 20 0 54 0;
#X connect 21 0 22 0;
#X connect 22 0 23 0;
#X connect 23 0 38 0;
#X connect 24 0 26 0;
#X connect 25 0 24 1;
#X connect 27 0 26 1;
#X connect 28 0 42 0;
#X connect 29 0 43 0;
#X connect 30 0 44 0;
#X connect 31 0 45 0;
#X connect 35 0 3 0;
#X connect 36 0 31 1;
#X connect 36 0 30 1;
#X connect 36 0 29 1;
#X connect 36 0 28 1;
#X connect 37 0 5 1;
#X connect 38 0 20 1;
#X connect 41 0 0 0;
#X connect 41 0 10 0;
#X connect 41 0 15 1;
#X connect 41 0 20 0;
#X connect 42 0 6 0;
#X connect 43 0 11 0;
#X connect 44 0 16 0;
#X connect 45 0 21 0;
#X connect 46 0 54 0;
#X connect 47 0 54 0;
#X connect 48 0 54 0;
#X connect 55 0 54 0;
#X connect 56 0 71 0;
#X connect 57 0 74 0;
#X connect 59 0 70 0;
#X connect 60 0 73 0;
#X connect 62 0 70 0;
#X connect 63 0 70 0;
#X connect 64 0 70 0;
#X connect 65 0 70 0;
#X connect 66 0 71 0;
#X connect 67 0 71 0;
#X connect 68 0 71 0;
#X connect 69 0 71 0;
#X connect 70 0 78 0;
#X connect 70 1 78 0;
#X connect 70 2 78 0;
#X connect 70 3 78 0;
#X connect 71 0 79 0;
#X connect 71 1 79 0;
#X connect 71 2 79 0;
#X connect 71 3 79 0;
#X connect 72 0 76 0;
#X connect 72 0 77 0;
#X connect 73 0 62 0;
#X connect 73 1 63 0;
#X connect 73 2 64 0;
#X connect 73 3 65 0;
#X connect 74 0 66 0;
#X connect 74 1 67 0;
#X connect 74 2 68 0;
#X connect 74 3 69 0;
#X connect 75 0 83 0;
#X connect 76 0 81 0;
#X connect 77 0 80 0;
#X connect 78 0 0 0;
#X connect 78 0 10 0;
#X connect 78 0 15 0;
#X connect 78 0 20 0;
#X connect 79 0 0 0;
#X connect 79 0 10 0;
#X connect 79 0 15 0;
#X connect 79 0 20 0;
#X connect 80 0 57 0;
#X connect 81 0 60 0;
#X connect 82 0 83 0;
#X connect 83 0 84 0;
#X connect 84 0 1 0;
#X connect 84 0 1 1;
#X connect 84 0 1 2;
#X connect 84 0 1 3;
#X connect 85 0 75 0;
#X restore 22 44 pd super_guerra;
#X text 97 98 ALba Pastor y Cristina García;
